IDResults
version=1
nRows=32
nColumns=18
inDegrees=yes
endheader
time	ground_thorax_rot_x	ground_thorax_rot_y	ground_thorax_rot_z	ground_thorax_tx	ground_thorax_ty	ground_thorax_tz	clav_prot	clav_elev	scapula_abduction	scapula_elevation	scapula_upward_rot	scapula_winging	plane_elv	shoulder_elv	axial_rot	elbow_flexion	pro_sup
      3.38000000	      9.52992779	      6.02932063	     -1.07095669	     -0.13988627	      0.03142076	      0.02852507	    -23.11937553	     -8.47074069	     -2.93962493	    -12.75513034	     41.77475279	     11.15772844	     11.00000000	     41.60429209	    -16.98729261	     31.56343123	      5.15400000
      3.40000000	      9.52992779	      5.64364843	     -1.36652582	     -0.13870304	      0.03008116	      0.02942443	    -23.02780145	     -8.62074249	     -3.69270528	    -12.72181426	     40.72622844	     11.37691703	     11.00000000	     40.75942171	    -15.68878261	     31.00915028	      5.15400000
      3.42000000	      9.52992779	      5.26892742	     -1.71707517	     -0.13730475	      0.02875148	      0.03034440	    -22.96044933	     -8.79202031	     -4.44933174	    -12.70201399	     39.70795040	     11.61052890	     11.00000000	     39.95065024	    -14.40277548	     30.40116216	      5.15400000
      3.44000000	      9.52992779	      4.80222682	     -2.15021442	     -0.13560820	      0.02714512	      0.03138636	    -22.86271964	     -8.81105281	     -5.01384086	    -12.59864223	     38.88308231	     11.74096293	     11.00000000	     38.94339551	    -13.77068309	     29.80740411	      5.15400000
      3.46000000	      9.52992779	      4.56686860	     -2.55537091	     -0.13407344	      0.02595256	      0.03224537	    -22.85726144	     -9.08019264	     -5.89504217	    -12.62965782	     37.80557516	     12.04900768	     11.00000000	     38.42848668	    -11.74447451	     28.98234668	      5.15400000
      3.48000000	      9.52992779	      4.26927096	     -3.05084691	     -0.13226571	      0.02449854	      0.03319140	    -22.85106919	     -9.19915292	     -6.62527835	    -12.58348585	     36.93626129	     12.25378976	     11.00000000	     37.70151169	    -10.37469309	     28.20546859	      5.15400000
      3.50000000	      9.52992779	      3.98366903	     -3.56188434	     -0.13037163	      0.02304600	      0.03419434	    -22.85587511	     -9.30164105	     -7.33203100	    -12.53004383	     36.11557184	     12.44703511	     11.00000000	     36.97063159	     -8.98398843	     27.36940107	      5.15400000
      3.52000000	      9.52992779	      3.72402949	     -4.09485454	     -0.12841681	      0.02161531	      0.03522210	    -22.88643610	     -9.38742343	     -8.03350812	    -12.47215954	     35.35400379	     12.62754920	     11.00000000	     36.22348307	     -7.53313946	     26.48245673	      5.15400000
      3.54000000	      9.52992779	      3.37941907	     -4.67863057	     -0.12632622	      0.01996307	      0.03636661	    -22.85971400	     -9.32184045	     -8.53673370	    -12.32948062	     34.74761783	     12.70332442	     11.00000000	     35.30114681	     -6.88627213	     25.59908893	      5.15400000
      3.56000000	      9.52992779	      3.25032236	     -5.19521269	     -0.12434433	      0.01872997	      0.03737843	    -23.02045498	     -9.48133209	     -9.40757373	    -12.32990217	     34.02772617	     12.92985765	     11.00000000	     34.62425276	     -4.56952430	     24.61849866	      5.15400000
      3.58000000	      9.52992779	      2.92307153	     -5.78473422	     -0.12219383	      0.01707900	      0.03862261	    -23.03049056	     -9.35838978	     -9.89624445	    -12.16283278	     33.52836613	     12.96594171	     11.00000000	     33.62735260	     -3.96225766	     23.71378943	      5.15400000
      3.60000000	      9.52992779	      2.83062337	     -6.30963908	     -0.12014694	      0.01584255	      0.03967455	    -23.27769127	     -9.44715361	    -10.77282481	    -12.14719604	     32.99997137	     13.13276544	     11.00000000	     32.76621076	     -1.55947458	     22.68550740	      5.15400000
      3.62000000	      9.52992779	      2.62317263	     -6.92185338	     -0.11797299	      0.01426483	      0.04083491	    -23.45904074	     -9.35263556	    -11.41570330	    -12.03387763	     32.66694495	     13.16824038	     11.00000000	     31.69778800	     -0.17567516	     21.76133560	      5.15400000
      3.64000000	      9.52992779	      2.44807775	     -7.41313633	     -0.11588169	      0.01294118	      0.04206185	    -23.65321827	     -9.28462197	    -12.16520961	    -11.92034196	     32.22692423	     13.23845884	     11.00000000	     30.64532352	      1.39380510	     20.77490546	      5.15400000
      3.66000000	      9.52992779	      2.09997575	     -7.92138149	     -0.11361036	      0.01136923	      0.04349087	    -23.73538535	     -9.04988425	    -12.69718454	    -11.69808183	     31.86341862	     13.20758404	     11.00000000	     29.46032521	      1.90501382	     19.91212750	      5.15400000
      3.68000000	      9.52992779	      2.10824876	     -8.44718074	     -0.11155719	      0.01012892	      0.04453007	    -24.14840028	     -9.01763659	    -13.67101375	    -11.65183876	     31.60879148	     13.27343566	     11.00000000	     28.28049503	      4.35156473	     18.85899351	      5.15400000
      3.70000000	      9.52992779	      1.92758538	     -8.96102689	     -0.10929967	      0.00868352	      0.04576530	    -24.42938499	     -8.82287816	    -14.42550580	    -11.49251294	     31.39073780	     13.24555682	     11.00000000	     26.98661251	      5.69316926	     17.90131622	      5.15400000
      3.72000000	      9.52992779	      1.73800816	     -9.47354245	     -0.10698017	      0.00722847	      0.04700674	    -24.72731000	     -8.61191307	    -15.20321274	    -11.32544758	     31.18788151	     13.20722868	     11.00000000	     25.67744107	      6.98806990	     16.95946276	      5.15400000
      3.74000000	      9.52992779	      1.57045612	     -9.97509218	     -0.10463260	      0.00578907	      0.04825676	    -25.04299545	     -8.36543216	    -15.99744640	    -11.14047189	     31.01713801	     13.14625194	     11.00000000	     24.30555866	      8.15795168	     15.97918283	      5.15400000
      3.76000000	      9.52992779	      1.36981569	    -10.49177811	     -0.10215053	      0.00431562	      0.04951218	    -25.36469489	     -8.10256192	    -16.78359616	    -10.94987202	     30.87572802	     13.07098754	     11.00000000	     22.92492715	      9.22199864	     15.01350501	      5.15400000
      3.78000000	      9.52992779	      1.23579034	    -11.04197296	     -0.09970610	      0.00276401	      0.05063128	    -25.68649367	     -7.79714649	    -17.57858549	    -10.73115565	     30.74135787	     12.97485437	     11.00000000	     21.57274030	     10.01319917	     13.98595901	      5.15400000
      3.80000000	      9.52992779	      0.95476331	    -11.61731716	     -0.09698869	      0.00109910	      0.05192710	    -25.96123567	     -7.44715347	    -18.23641286	    -10.49381793	     30.68659605	     12.84172183	     11.00000000	     20.16760657	     10.34500063	     13.04106771	      5.15400000
      3.82000000	      9.52992779	      0.75878092	    -12.18028232	     -0.09431156	     -0.00047002	      0.05313626	    -26.26994999	     -7.12839194	    -18.98339858	    -10.27221906	     30.58872067	     12.73172539	     11.00000000	     18.82491356	     10.79949476	     12.00779103	      5.15400000
      3.84000000	      9.52992779	      0.57485854	    -12.68337506	     -0.09164238	     -0.00189969	      0.05428739	    -26.54076492	     -6.82482629	    -19.73744845	    -10.04137111	     30.39726856	     12.64840493	     11.00000000	     17.59484376	     11.61992231	     10.84563668	      5.15400000
      3.86000000	      9.52992779	      0.31514296	    -13.27851308	     -0.08884165	     -0.00349931	      0.05549790	    -26.76745226	     -6.48424562	    -20.33822208	     -9.80168991	     30.30819465	     12.52888456	     11.00000000	     16.36307321	     11.53065348	      9.74015171	      5.15400000
      3.88000000	      9.52992779	      0.00860053	    -13.78360304	     -0.08605721	     -0.00498892	      0.05674194	    -26.88912419	     -6.10995461	    -20.88748429	     -9.50398238	     30.07134132	     12.43287787	     11.00000000	     15.31585352	     11.37013368	      8.59299887	      5.15400000
      3.90000000	      9.52992779	     -0.22738019	    -14.37616511	     -0.08328082	     -0.00652079	      0.05785002	    -27.08056237	     -5.77953831	    -21.42158246	     -9.26964964	     29.98485435	     12.32173840	     11.00000000	     14.22050990	     11.12436132	      7.41586017	      5.15400000
      3.92000000	      9.52992779	     -0.49333522	    -14.93982814	     -0.08049999	     -0.00799088	      0.05894733	    -27.23301729	     -5.44459364	    -21.91650996	     -9.02332870	     29.86491575	     12.21955220	     11.00000000	     13.24015108	     10.80007940	      6.24505600	      5.15400000
      3.94000000	      9.52992779	     -0.74839585	    -15.65185853	     -0.07772705	     -0.00969892	      0.06009855	    -27.43383485	     -5.09645318	    -22.38648307	     -8.79816434	     29.88445404	     12.08090061	     11.00000000	     12.27556461	      8.64009483	      5.40069232	      5.15400000
      3.96000000	      9.52992779	     -1.04083418	    -16.17661871	     -0.07510841	     -0.01100375	      0.06114473	    -27.52536513	     -4.78954596	    -22.76764707	     -8.56669486	     29.76015341	     11.99650073	     11.00000000	     11.47944041	      8.20847051	      4.24684078	      5.15400000
      3.98000000	      9.52992779	     -1.36395813	    -16.81216784	     -0.07247299	     -0.01239827	      0.06219245	    -27.67404050	     -4.52058627	    -23.08459741	     -8.40108871	     29.81813145	     11.88221497	     11.00000000	     10.65816804	      7.09191528	      3.26315104	      5.15400000
      4.00000000	      9.52992779	     -1.76291659	    -17.40274917	     -0.07004075	     -0.01401113	      0.06335374	    -27.66640454	     -4.05343265	    -23.33471642	     -8.05542243	     29.70870073	     11.74917438	     11.00000000	     10.18180146	      3.17055659	      2.75082123	      5.15400000
